<?xml version="1.0" encoding="UTF-8" standalone="no"?>
<!-- Created with Inkscape (http://www.inkscape.org/) -->

<svg
   xmlns:dc="http://purl.org/dc/elements/1.1/"
   xmlns:cc="http://creativecommons.org/ns#"
   xmlns:rdf="http://www.w3.org/1999/02/22-rdf-syntax-ns#"
   xmlns:svg="http://www.w3.org/2000/svg"
   xmlns="http://www.w3.org/2000/svg"
   xmlns:sodipodi="http://sodipodi.sourceforge.net/DTD/sodipodi-0.dtd"
   xmlns:inkscape="http://www.inkscape.org/namespaces/inkscape"
   width="85mm"
   height="55mm"
   viewBox="0 0 301.1811 194.88189"
   id="svg4329"
   version="1.1"
   inkscape:version="0.91 r13725"
   sodipodi:docname="front.op2.svg">
  <defs
     id="defs4331" />
  <sodipodi:namedview
     id="base"
     pagecolor="#ffffff"
     bordercolor="#666666"
     borderopacity="1.0"
     inkscape:pageopacity="0.0"
     inkscape:pageshadow="2"
     inkscape:zoom="1.979899"
     inkscape:cx="192.26235"
     inkscape:cy="113.5168"
     inkscape:document-units="px"
     inkscape:current-layer="layer1"
     showgrid="false"
     inkscape:window-width="1366"
     inkscape:window-height="705"
     inkscape:window-x="-8"
     inkscape:window-y="-8"
     inkscape:window-maximized="1" />
  <metadata
     id="metadata4334">
    <rdf:RDF>
      <cc:Work
         rdf:about="">
        <dc:format>image/svg+xml</dc:format>
        <dc:type
           rdf:resource="http://purl.org/dc/dcmitype/StillImage" />
        <dc:title></dc:title>
      </cc:Work>
    </rdf:RDF>
  </metadata>
  <g
     inkscape:label="Capa 1"
     inkscape:groupmode="layer"
     id="layer1"
     transform="translate(0,-857.48031)">
    <g
       id="g4945"
       transform="matrix(0,-1.2288886,1.2300853,0,-34.502265,1096.3765)"
       style="stroke-width:0.16266949;stroke-miterlimit:4;stroke-dasharray:none"
       inkscape:export-xdpi="90"
       inkscape:export-ydpi="90">
      <path
         id="path4939"
         transform="scale(0.26458333,0.26458333)"
         d="m 255.48242,364.01367 a 1.3334667,1.3334667 0 0 0 -0.13476,0.002 1.3334667,1.3334667 0 0 0 -1.24805,1.24805 l -3.33594,51.42188 a 1.3334667,1.3334667 0 0 0 0.36133,0.99609 l 23.74609,25.4375 15.25196,70.1875 a 1.3334667,1.3334667 0 0 0 1.31445,1.04883 l 49.84961,-0.55469 -36.3125,55.1875 a 1.3334667,1.3334667 0 0 0 -0.1543,1.13672 l 21.32031,67.19531 0.0137,0.0469 a 1.3334667,1.3334667 0 0 0 0.0293,0.0781 1.3334667,1.3334667 0 0 0 0.9375,0.82227 l 59.32032,13.8418 a 1.3334667,1.3334667 0 0 0 1.49218,-0.6875 l 37.72852,-72.79297 -1.18164,-0.61133 -0.69336,-1.14453 -59.41992,36.08984 61.03711,-61.78711 a 1.3334667,1.3334667 0 0 0 0.0215,-0.0215 1.3334667,1.3334667 0 0 0 0.0703,-0.0762 1.3334667,1.3334667 0 0 0 0.008,-0.0117 1.3334667,1.3334667 0 0 0 0.0723,-0.0937 1.3334667,1.3334667 0 0 0 0.006,-0.008 1.3334667,1.3334667 0 0 0 0.0352,-0.0586 1.3334667,1.3334667 0 0 0 0.043,-0.0742 1.3334667,1.3334667 0 0 0 0.004,-0.01 1.3334667,1.3334667 0 0 0 0.0527,-0.11133 1.3334667,1.3334667 0 0 0 0.008,-0.0234 1.3334667,1.3334667 0 0 0 0.0352,-0.10156 1.3334667,1.3334667 0 0 0 0.004,-0.0137 1.3334667,1.3334667 0 0 0 0.0274,-0.11719 1.3334667,1.3334667 0 0 0 0.004,-0.0293 1.3334667,1.3334667 0 0 0 0.0137,-0.10156 1.3334667,1.3334667 0 0 0 0,-0.008 1.3334667,1.3334667 0 0 0 -0.0625,-0.51953 1.3334667,1.3334667 0 0 0 -0.008,-0.0195 1.3334667,1.3334667 0 0 0 -0.44922,-0.62304 1.3334667,1.3334667 0 0 0 -0.0176,-0.0117 1.3334667,1.3334667 0 0 0 -0.20898,-0.12696 1.3334667,1.3334667 0 0 0 -0.0215,-0.01 l -0.0703,-0.0332 a 1.3334667,1.3334667 0 0 0 -0.002,0 l -78.53711,-36.75782 78.80664,-55.17968 a 1.3334667,1.3334667 0 0 0 0.002,-0.002 1.3334667,1.3334667 0 0 0 0.0371,-2.15429 L 328.8934,382.0852 a 1.3334667,1.3334667 0 0 0 -0.22852,-0.13867 1.3334667,1.3334667 0 0 0 -0.125,-0.0527 1.3334667,1.3334667 0 0 0 -0.12695,-0.0371 1.3334667,1.3334667 0 0 0 -0.006,-0.008 l -72.66016,-17.79688 a 1.3334667,1.3334667 0 0 0 -0.26367,-0.0391 z m 1.82031,3.16406 66.67579,16.33399 -55.69922,24.64062 z m -1.06835,6.31836 9.57617,35.74805 -12.24024,5.41602 z m 72.60742,11.89063 91.10742,68.80664 -107.76953,-9.77344 z m -5.74219,1.42578 -46.36328,52.91602 -7.75781,-28.9668 z m 2.10156,1.66016 -15.72265,55.70312 -30.65625,-2.7832 z m -58.6914,23.38086 6.91015,25.80273 -19.06445,-20.42383 z m 11.27148,32.11523 30.95898,2.8125 -17.14062,60.73828 z m 34.93359,3.17187 108.00977,9.80079 -76.44336,53.52148 z m -1.91015,2.14063 30.83203,61.84961 -48.44336,0.53711 z m 34.06054,65.13867 75.14844,35.17578 -81.5332,13.4375 z m -3.16211,3.60742 -5.9707,45.45899 -26.85742,4.42578 z m 74.39258,34.91993 -81.70703,41.23437 3.72852,-28.38867 z m 1.71485,2.12695 -61.99414,62.74609 -20.83985,-20.94922 z m -82.44141,11.17187 -3.59961,27.40039 -22.91211,-23.0332 z m -26.35156,8.30469 22.3125,22.4336 -4.44922,33.86718 z m 112.08984,7.07031 -34.70117,66.95118 -28.44727,-28.59766 z m -87.40039,17.75196 19.97266,20.08007 -24.57227,14.92383 z m 21.9082,22.02539 26.90821,27.05273 -51.6211,-12.04297 z"
         style="color:#000000;font-style:normal;font-variant:normal;font-weight:normal;font-stretch:normal;font-size:medium;line-height:normal;font-family:sans-serif;text-indent:0;text-align:start;text-decoration:none;text-decoration-line:none;text-decoration-style:solid;text-decoration-color:#000000;letter-spacing:normal;word-spacing:normal;text-transform:none;direction:ltr;writing-mode:lr-tb;baseline-shift:baseline;text-anchor:start;white-space:normal;clip-rule:nonzero;display:inline;overflow:visible;visibility:visible;opacity:1;isolation:auto;mix-blend-mode:normal;color-interpolation:sRGB;color-interpolation-filters:linearRGB;solid-color:#000000;solid-opacity:1;fill:#c83737;fill-opacity:1;fill-rule:evenodd;stroke:#c83737;stroke-width:0.30740693;stroke-linecap:butt;stroke-linejoin:round;stroke-miterlimit:4;stroke-dasharray:none;stroke-dashoffset:0;stroke-opacity:1;paint-order:fill markers stroke;color-rendering:auto;image-rendering:auto;shape-rendering:auto;text-rendering:auto;enable-background:accumulate"
         inkscape:connector-curvature="0" />
      <path
         inkscape:connector-curvature="0"
         id="path4941"
         d="m 162.63658,96.312701 a 0.35281306,0.35281306 0 0 0 -0.0858,0.0098 l -19.22467,4.708749 a 0.35281306,0.35281306 0 0 0 -0.0331,0.0103 0.35281306,0.35281306 0 0 0 -0.004,0.002 0.35281306,0.35281306 0 0 0 -0.0295,0.0114 0.35281306,0.35281306 0 0 0 -0.002,0.002 0.35281306,0.35281306 0 0 0 -0.0295,0.0155 0.35281306,0.35281306 0 0 0 -0.002,0.002 0.35281306,0.35281306 0 0 0 -0.0295,0.0196 l -25.5018,19.25981 a 0.35281306,0.35281306 0 0 0 0.0103,0.56947 l -5.1e-4,5.2e-4 0.006,0.004 20.84576,14.59601 -20.78685,9.72861 a 0.35281306,0.35281306 0 0 0 -0.20412,0.41651 0.35281306,0.35281306 0 0 0 5.2e-4,0.001 0.35281306,0.35281306 0 0 0 0.0253,0.0651 0.35281306,0.35281306 0 0 0 0,5.1e-4 0.35281306,0.35281306 0 0 0 0.002,0.004 0.35281306,0.35281306 0 0 0 0.0346,0.0548 0.35281306,0.35281306 0 0 0 0.001,0.001 0.35281306,0.35281306 0 0 0 0.0233,0.0269 0.35281306,0.35281306 0 0 0 0.004,0.004 l 16.1556,16.35352 -15.72203,-9.54877 -0.18345,0.30334 -0.31316,0.16175 9.98285,19.25981 a 0.35281306,0.35281306 0 0 0 0.39429,0.18138 l 15.69517,-3.66179 a 0.35281306,0.35281306 0 0 0 0.25786,-0.23823 l 5.64255,-17.79116 a 0.35281306,0.35281306 0 0 0 -0.0408,-0.30076 l -9.60717,-14.60169 13.18938,0.14676 a 0.35281306,0.35281306 0 0 0 0.34726,-0.2775 l 4.03542,-18.57044 6.28333,-6.73034 a 0.35281306,0.35281306 0 0 0 0.0956,-0.26355 l -0.88264,-13.605885 a 0.35281306,0.35281306 0 0 0 -0.34985,-0.330213 z m -0.49764,0.836641 -2.90422,10.841198 -14.73708,-6.5195 z m 0.28267,1.671733 0.70487,10.891325 -3.23857,-1.43299 z m -19.21072,3.146055 4.40801,15.6192 -28.51144,2.58589 z m 1.51826,0.37672 14.32057,6.33708 -2.0531,7.66414 z m -0.55552,0.43977 12.2716,14.00173 -8.11113,0.73639 z m 15.52928,6.18619 3.21583,1.42316 -5.04466,5.40433 z m -2.98224,8.49715 -3.65611,16.81448 -4.53513,-16.07034 z m -9.24285,0.83923 -8.35247,16.75453 -20.22512,-14.16141 z m 0.50488,0.56637 4.65966,16.507 -12.8173,-0.14211 z m -9.01186,17.23461 1.68982,12.86226 -21.57129,-3.55534 z m 0.83716,0.95601 8.68474,13.19713 -7.10499,-1.17099 z m -19.68304,9.23768 20.63182,3.39876 0.98702,7.51168 z m -0.45423,0.56224 21.91753,11.05927 -5.51388,5.54385 z m 21.81262,2.95641 7.01508,1.15548 -6.06268,6.09524 z m 6.97219,2.19728 -4.72633,14.89728 -1.17719,-8.96172 z m -29.65711,1.87017 16.70906,10.14925 -7.52719,7.5675 z m 23.12521,4.69687 1.21698,9.26197 -6.50142,-3.9486 z m -5.79707,5.82807 6.53862,3.97133 -13.6586,3.18741 z"
         style="color:#000000;font-style:normal;font-variant:normal;font-weight:normal;font-stretch:normal;font-size:medium;line-height:normal;font-family:sans-serif;text-indent:0;text-align:start;text-decoration:none;text-decoration-line:none;text-decoration-style:solid;text-decoration-color:#000000;letter-spacing:normal;word-spacing:normal;text-transform:none;direction:ltr;writing-mode:lr-tb;baseline-shift:baseline;text-anchor:start;white-space:normal;clip-rule:nonzero;display:inline;overflow:visible;visibility:visible;opacity:1;isolation:auto;mix-blend-mode:normal;color-interpolation:sRGB;color-interpolation-filters:linearRGB;solid-color:#000000;solid-opacity:1;fill:#162d50;fill-opacity:1;fill-rule:evenodd;stroke:#162d50;stroke-width:0.08133474;stroke-linecap:butt;stroke-linejoin:round;stroke-miterlimit:4;stroke-dasharray:none;stroke-dashoffset:0;stroke-opacity:1;paint-order:fill markers stroke;color-rendering:auto;image-rendering:auto;shape-rendering:auto;text-rendering:auto;enable-background:accumulate" />
      <path
         id="path4943"
         transform="scale(0.26458333,0.26458333)"
         d="m 426.00977,413.30469 a 1.3334667,1.3334667 0 0 0 -0.6875,0.23633 l -6.63672,4.53906 a 1.3334667,1.3334667 0 0 0 -0.47852,1.61719 l 9.94531,23.90234 -4.68945,5.4707 a 1.3334667,1.3334667 0 0 0 -0.31836,0.8711 l 0,128.07617 a 1.3334667,1.3334667 0 0 0 0.20703,0.71484 l 10.45313,16.26172 a 1.3334667,1.3334667 0 0 0 2.23828,-0.004 l 0.006,0.004 10.44531,-16.26172 a 1.3334667,1.3334667 0 0 0 0.21289,-0.71484 l 0,-128.07617 a 1.3334667,1.3334667 0 0 0 -0.32422,-0.8711 l -4.6875,-5.47656 9.94336,-23.89648 a 1.3334667,1.3334667 0 0 0 -0.47265,-1.61719 l -6.64258,-4.53906 a 1.3334667,1.3334667 0 0 0 -0.75391,-0.23633 1.3334667,1.3334667 0 0 0 -1.32031,1.17383 l -3.48047,28.02929 -4.04297,0 -4.04883,0 -3.47265,-28.02929 a 1.3334667,1.3334667 0 0 0 -1.39453,-1.17383 z m -0.98243,3.66797 2.14844,17.31836 -6.08984,-14.62305 z m 19.79883,0 3.9336,2.69531 -6.08204,14.62305 z m -14.51367,28.19922 1.7793,0 -6.28321,7.20703 0,-1.94336 z m 7.70508,0 1.51562,0 4.50977,5.26367 0,1.64843 z m -1.76172,2.03906 7.72461,8.86133 -7.72461,34.84179 z m -2.66602,0.30273 0,43.37305 -7.66601,-34.57813 z m -7.78125,20.60352 7.75,34.96093 -7.75,34.9629 z m 18.23438,0 0,69.92383 -7.75,-34.9629 z m -7.78711,47.12695 7.78711,35.12695 0,24.6211 -7.78711,-7.11524 z m -2.66602,0.0273 0,52.61133 -7.78125,7.10938 0,-24.6211 z m 2.66602,56.2168 7.38867,6.75586 -7.38867,11.49609 z m -2.66602,0.006 0,18.23828 -7.38476,-11.49219 z"
         style="color:#000000;font-style:normal;font-variant:normal;font-weight:normal;font-stretch:normal;font-size:medium;line-height:normal;font-family:sans-serif;text-indent:0;text-align:start;text-decoration:none;text-decoration-line:none;text-decoration-style:solid;text-decoration-color:#000000;letter-spacing:normal;word-spacing:normal;text-transform:none;direction:ltr;writing-mode:lr-tb;baseline-shift:baseline;text-anchor:start;white-space:normal;clip-rule:nonzero;display:inline;overflow:visible;visibility:visible;opacity:1;isolation:auto;mix-blend-mode:normal;color-interpolation:sRGB;color-interpolation-filters:linearRGB;solid-color:#000000;solid-opacity:1;fill:#000000;fill-opacity:1;fill-rule:evenodd;stroke:#000000;stroke-width:0.30740693;stroke-linecap:butt;stroke-linejoin:round;stroke-miterlimit:4;stroke-dasharray:none;stroke-dashoffset:0;stroke-opacity:1;paint-order:fill markers stroke;color-rendering:auto;image-rendering:auto;shape-rendering:auto;text-rendering:auto;enable-background:accumulate"
         inkscape:connector-curvature="0" />
    </g>
    <text
       xml:space="preserve"
       style="font-style:normal;font-weight:normal;font-size:30.34340286px;line-height:125%;font-family:sans-serif;letter-spacing:1.67000008px;word-spacing:0px;fill:#c83737;fill-opacity:1;stroke:none;stroke-width:1px;stroke-linecap:butt;stroke-linejoin:miter;stroke-opacity:1;"
       x="-1365.2697"
       y="33.455841"
       id="text4913"
       sodipodi:linespacing="125%"
       transform="matrix(0,-0.75858507,1.3182437,0,0,0)"><tspan
         sodipodi:role="line"
         id="tspan4915"
         x="-1365.2697"
         y="33.455841"
         style="font-style:normal;font-variant:normal;font-weight:normal;font-stretch:normal;font-family:Verdana;-inkscape-font-specification:Verdana;letter-spacing:1.67000008px;fill:#c83737;fill-opacity:1;">Softbutterfly</tspan></text>
    <text
       xml:space="preserve"
       style="font-style:normal;font-weight:normal;font-size:12.5px;line-height:125%;font-family:sans-serif;letter-spacing:0px;word-spacing:0px;fill:#162d50;fill-opacity:1;stroke:none;stroke-width:1px;stroke-linecap:butt;stroke-linejoin:miter;stroke-opacity:1;"
       x="-1017.7661"
       y="69.284248"
       id="text4917"
       sodipodi:linespacing="125%"
       transform="matrix(0,-1,1,0,0,0)"><tspan
         sodipodi:role="line"
         id="tspan4919"
         x="-1017.7661"
         y="69.284248"
         style="font-style:normal;font-variant:normal;font-weight:normal;font-stretch:normal;font-size:12.5px;font-family:Verdana;-inkscape-font-specification:Verdana;fill:#162d50;fill-opacity:1;">soluciones creativas</tspan></text>
    <text
       xml:space="preserve"
       style="font-style:normal;font-weight:normal;font-size:14.73314857px;line-height:125%;font-family:sans-serif;letter-spacing:1px;word-spacing:0px;fill:#162d50;fill-opacity:1;stroke:none;stroke-width:1px;stroke-linecap:butt;stroke-linejoin:miter;stroke-opacity:1;"
       x="-970.97791"
       y="252.48251"
       id="text4921"
       sodipodi:linespacing="125%"
       transform="matrix(0,-1.0605546,0.9429029,0,0,0)"><tspan
         sodipodi:role="line"
         id="tspan4923"
         x="-970.97791"
         y="252.48251"
         style="font-style:normal;font-variant:normal;font-weight:normal;font-stretch:normal;font-size:14.73314857px;font-family:Verdana;-inkscape-font-specification:Verdana;letter-spacing:1px;fill:#162d50;fill-opacity:1;">Alexander Casias</tspan></text>
    <rect
       style="fill:#c83737;fill-opacity:1;stroke:none;stroke-width:0.2;stroke-miterlimit:4;stroke-dasharray:none;stroke-opacity:1"
       id="rect4925"
       width="1.0101526"
       height="154.55334"
       x="245.48737"
       y="875.64453" />
    <text
       xml:space="preserve"
       style="font-style:normal;font-weight:normal;font-size:9.13116932px;line-height:125%;font-family:sans-serif;letter-spacing:0px;word-spacing:0px;fill:#172d50;fill-opacity:0.57254905;stroke:none;stroke-width:1px;stroke-linecap:butt;stroke-linejoin:miter;stroke-opacity:1;"
       x="-1121.161"
       y="236.84973"
       id="text4927"
       sodipodi:linespacing="125%"
       transform="matrix(0,-0.91311691,1.09515,0,0,0)"><tspan
         sodipodi:role="line"
         id="tspan4929"
         x="-1121.161"
         y="236.84973"
         style="font-style:normal;font-variant:normal;font-weight:normal;font-stretch:normal;font-size:9.13116932px;font-family:Verdana;-inkscape-font-specification:Verdana;fill:#172d50;fill-opacity:0.57254905;">alexander.casias@softbutterfly.io</tspan></text>
    <text
       xml:space="preserve"
       style="font-style:normal;font-weight:normal;font-size:40px;line-height:125%;font-family:sans-serif;letter-spacing:0px;word-spacing:0px;fill:#172d50;fill-opacity:0.57254905;stroke:none;stroke-width:1px;stroke-linecap:butt;stroke-linejoin:miter;stroke-opacity:1;"
       x="-1011.5912"
       y="275.03119"
       id="text4931"
       sodipodi:linespacing="125%"
       transform="matrix(0,-1,1,0,0,0)"><tspan
         sodipodi:role="line"
         id="tspan4933"
         x="-1011.5912"
         y="275.03119"
         style="font-style:normal;font-variant:normal;font-weight:normal;font-stretch:normal;font-size:10px;font-family:Verdana;-inkscape-font-specification:Verdana;fill:#172d50;fill-opacity:0.57254905;">980785949 / 3832219</tspan></text>
  </g>
</svg>
